<?xml version="1.0" encoding="utf-8"?>
<!-- Generator: Adobe Illustrator 16.0.0, SVG Export Plug-In . SVG Version: 6.00 Build 0)  -->
<!DOCTYPE svg PUBLIC "-//W3C//DTD SVG 1.1//EN" "http://www.w3.org/Graphics/SVG/1.1/DTD/svg11.dtd">
<svg version="1.1" id="Layer_1" xmlns="http://www.w3.org/2000/svg" xmlns:xlink="http://www.w3.org/1999/xlink" x="0px" y="0px"
	 width="360px" height="360px" viewBox="0 0 360 360" enable-background="new 0 0 360 360" xml:space="preserve">
<g>
	<path fill="#020202" d="M80.711,295.202c0-0.561,0-1.59,0.796-1.59h1.356l0.141-0.141c0.047-0.047,0.093-0.701,0.14-0.936v-0.469
		c-0.047-5.66-0.327-11.414-0.327-17.076c-0.141-0.982-2.059-0.094-2.807-1.029l-0.188-0.186l-0.047-5.146
		c8.796-0.047,10.433,0.094,12.257,0.279c6.972,0.609,9.731,7.58,9.498,14.363v0.561c0,11.838-4.772,16.703-16.982,16.844
		c-1.265,0-2.667,0.279-3.557-0.844C80.758,298.29,80.711,296.7,80.711,295.202 M89.179,291.554c0.047,0.795-0.14,1.402,0.889,1.402
		c5.334,0,6.737-17.73-0.748-17.73h-0.188L89.179,291.554z"/>
	<path fill="#020202" d="M113.507,301.097c-0.655,0.047-1.403,0.094-2.247,0.094c-2.385,0-5.098-0.375-5.098-2.572
		c0-3.416-0.234-10.199-0.375-14.738c0-0.561-0.046-1.029-0.046-1.496h-0.094c-1.263-0.094-2.152-0.842-2.246-2.434
		c-0.094-1.637,2.012-2.479,4.258-2.479c2.292,0,4.726,0.936,4.726,2.619c0,0.889,0.14,14.129,0.607,14.783h2.199
		c0.607,0.422,0.936,1.686,0.936,3.041c0,1.545-0.515,3.135-1.544,3.135C114.301,301.05,113.928,301.05,113.507,301.097
		 M107.239,269.985c1.497,0,4.396,0.703,4.396,2.668c0,1.73-1.543,2.807-3.181,2.807c-2.059,0-3.883-0.516-3.883-2.9
		C104.572,270.921,105.554,269.985,107.239,269.985"/>
	<path fill="#020202" d="M118.608,300.909c-0.047-0.094-0.094-0.563-0.094-0.701c0-1.73-0.234-13.941-0.469-16.42
		c-0.046-0.141-0.093-0.328-0.187-0.375c-0.28-0.094-0.608-0.141-0.937-0.188c-1.169-0.141-2.479-0.328-2.525-1.684
		c0-0.982,0.094-1.824,0.374-3.883c0.796-0.422,2.387-0.656,3.93-0.656c1.685,0,3.463,0.234,4.352,0.703l0.28,0.654l0.046,3.135
		c1.686-2.527,4.118-3.369,7.112-3.275c6.269,0.141,8.233,7.158,8.233,13.006c0,1.217-0.093,2.387-0.233,3.463v0.326
		c0.233,0.328,0.936,0.373,1.591,0.373c1.029,0,2.198,0.143,2.245,1.266c0.141,0.654,0.188,1.262,0.188,1.73
		c0,1.123-0.281,2.012-0.844,2.572c-0.7,0.422-6.923,0.094-8.841,0.094c-0.374-3.182-0.094-6.223-0.094-9.402
		c0-4.305-0.468-7.486-3.93-7.486c-3.088,0-3.648,4.771-3.603,6.971c-0.187,3.557,0.422,10.434-0.842,9.918
		c-1.497-0.141-3.977,0.375-5.474,0C118.794,301.05,118.748,301.05,118.608,300.909"/>
	<path fill="#020202" d="M142.374,290.103c0-6.27,3.322-12.818,11.649-12.443c5.988,0.607,9.123,5.848,9.123,11.508
		c0,6.363-3.183,11.883-10.293,12.117C146.117,301.284,142.374,296.794,142.374,290.103 M153.274,295.718
		c3.275,0,3.884-3.744,3.884-6.645c0-1.965-1.405-4.818-3.603-5.24c-3.415,0.234-4.117,2.949-4.305,6.035
		C149.25,292.724,149.953,295.718,153.274,295.718"/>
	<path fill="#020202" d="M167.216,300.536c-0.374-1.592-0.515-1.918-0.563-3.557v-0.889c0.048-0.047,0.048-0.141,0.048-0.188
		c0.982-1.168,1.685-0.654,2.9-1.121c0.093-3.977-0.187-16.703-0.374-20.398c-0.047-0.094-0.094-0.234-2.667-0.188
		c-0.14,0.609,0.141,3.416-0.421,3.416c-0.842-0.094-2.947,0-3.883,0c-1.403-0.188-1.497-0.656-1.497-1.824
		c0-1.451-0.141-4.959-0.047-6.41v-0.234l0.094-0.094l20.865-0.094c0.749,0.188,1.403,0.469,1.403,1.264
		c-0.187,1.637,1.685,9.451-2.947,8.748c-0.562,0-1.029,0-1.684,0.047c-1.076,0-0.796-3.883-0.983-4.396
		c-0.654-0.188-1.31-0.094-2.011,0h-0.141h-0.141h-0.094c0.094,2.338,0.375,15.672,0.468,19.836
		c-0.187,0.654,2.526,0.141,2.62,1.449c0.047,0.609,0.141,1.311,0.141,1.965c0,1.17-0.141,1.965-0.515,3.182
		c-0.374,0.795-1.264,0.609-2.059,0.609c-0.655,0.094-6.69-0.141-7.064-0.188C168.105,301.378,167.497,301.05,167.216,300.536"/>
	<path fill="#020202" d="M193.462,279.39v0.094c0,0,0,0.047,0.046,0.092c1.919-0.98,3.509-1.402,4.819-1.402
		c3.181,0,4.538,2.34,4.538,4.633c0,2.057-1.123,4.021-2.994,4.021c-1.45,0-1.918-0.748-2.199-2.15
		c-0.188-0.982-0.374-1.965-1.216-1.965c-3.182,0-2.059,6.082-2.105,17.029c-1.217,0.514-2.386,0.748-3.603,0.748
		c-0.982,0-1.918-0.141-2.9-0.469l-0.328-17.59c-2.479-0.094-2.386-2.807-2.339-4.398V277.8v-0.703
		c0.141-0.842,0.468-0.842,1.217-0.842c6.082,0,6.55,0.469,6.643,0.748h-0.047C193.649,277.8,193.462,278.407,193.462,279.39"/>
	<path fill="#020202" d="M214.842,299.085c-1.217,1.451-3.229,2.152-5.24,2.152c-3.368,0-6.924-2.387-7.345-6.736
		c-0.048-6.223,6.924-7.719,9.824-8.141c0.655-0.094,1.123-0.188,1.171-0.234c0.42-0.607-0.281-2.152-1.778-2.291
		c-0.982-0.094-1.778,0.514-2.479,1.027c-0.468,0.328-0.89,0.656-1.311,0.703c-1.169-0.047-3.134-3.135-3.556-4.445
		c1.825-2.244,4.679-3.555,7.485-3.555c1.919,0,3.837,0.561,5.334,1.777c3.274,2.574,3.274,5.848,3.274,9.217
		c0,2.338,0.047,4.725,1.17,6.971h1.544c1.403-0.094,0.748,3.648,0.842,5.053c-0.047,0.514-5.474,0.795-6.971,0.514
		C215.872,300.862,215.498,299.88,214.842,299.085 M207.731,294.688c0.281,1.076,1.076,1.73,2.152,1.73
		c0.982,0,2.292-0.516,3.742-1.543c-0.047-0.703-0.421-3.463-0.562-3.51C210.584,290.991,207.263,292.21,207.731,294.688"/>
	<path fill="#020202" d="M234.119,301.144l-3.977-0.094c-0.89-0.842-2.199-5.379-3.556-9.777c-0.982-3.182-1.919-6.316-2.714-8.094
		c-0.047,0-0.141-0.094-0.141-0.094l-1.497-0.279c-0.701-0.094-0.936-0.982-0.936-1.592c0-0.748,0.281-3.414,1.311-3.508
		c1.45,0.186,7.392-0.047,8.515,0.232c1.216,0.375,1.497,1.684,1.497,2.855c0,0.982-0.234,1.449-1.029,2.012
		c-0.141,0.092-0.327,0.092-0.608,0.092c-0.234,0-0.515,0-0.515,0.234c-0.094-0.047,0.327,1.404,0.936,3.604l1.31,4.818h0.047
		c0.749-2.152,1.591-4.398,2.386-6.504c0.094-0.326,0.281-0.701,0.375-1.029c-0.047,0-0.188-0.047-0.281-0.047
		c-0.421,0.047-1.029,0-1.122-1.168c-0.047-0.422-0.047-0.938-0.047-1.357c0-0.748,0.047-1.498,0.187-2.246
		c1.638-0.654,3.743-0.842,5.661-0.842c2.433,0,4.491,0.281,5.006,0.375v0.795c0,2.854-0.562,4.537-3.556,4.584
		c-0.936,3.604-2.245,7.439-3.462,10.668l-1.217,3.32C236.176,299.601,235.007,301.378,234.119,301.144"/>
	<path fill="#020202" d="M245.814,287.997c0-5.801,3.182-11.414,10.479-11.508c6.176-0.094,10.292,3.883,10.292,9.029
		c0,1.496-0.374,3.229-1.216,4.959h-12.726c0.094,3.555,1.965,5.006,4.211,5.006c1.918,0,4.069-1.076,5.661-2.807
		c0.842-0.982,3.274,2.432,3.415,3.602c-1.638,3.695-6.223,5.006-9.918,4.818C249.604,301.05,245.814,294.407,245.814,287.997
		 M261.112,285.753c0-2.105-0.842-4.398-4.022-4.305c-2.247,0.047-4.07,0.982-4.445,4.352L261.112,285.753z"/>
	<path fill="#020202" d="M272.808,301.003c-1.217-0.094-3.556-0.232-3.556-2.012v-0.188c-0.234-7.063-0.047-18.15-0.608-25.121
		c-0.982-0.234-2.76,0.232-3.368-0.842c-0.327-0.982-0.796-4.492,0.562-5.287c4.21,0.188,5.707,0.326,7.906,1.076
		c1.591,1.309,1.638,3.461,1.638,5.613c0.046,3.182,0.187,9.545,0.233,20.07c0.608-0.094,4.023,0.234,4.397,0.607
		c0.234,0.422,0.234,0.889,0.188,5.193c-0.374,1.076-1.871,0.889-2.854,0.982L272.808,301.003z"/>
	<path d="M118.422,321.456c0-0.201,0-0.57,0.286-0.57h0.486l0.051-0.051c0.017-0.018,0.033-0.252,0.05-0.336v-0.168
		c-0.017-2.031-0.117-4.096-0.117-6.125c-0.051-0.354-0.738-0.035-1.007-0.371l-0.067-0.066l-0.017-1.846
		c3.155-0.018,3.743,0.033,4.397,0.1c2.501,0.219,3.491,2.721,3.407,5.154v0.199c0,4.248-1.712,5.994-6.093,6.043
		c-0.453,0-0.957,0.102-1.275-0.301C118.44,322.563,118.422,321.993,118.422,321.456 M121.46,320.147
		c0.018,0.285-0.05,0.504,0.319,0.504c1.913,0,2.417-6.363-0.269-6.363h-0.067L121.46,320.147z"/>
	<path d="M130.188,323.571c-0.235,0.016-0.504,0.033-0.806,0.033c-0.856,0-1.829-0.135-1.829-0.924c0-1.225-0.084-3.658-0.135-5.287
		c0-0.201-0.017-0.369-0.017-0.537h-0.033c-0.454-0.033-0.772-0.301-0.806-0.873c-0.034-0.586,0.722-0.889,1.527-0.889
		c0.822,0,1.695,0.336,1.695,0.939c0,0.32,0.05,5.07,0.218,5.305h0.79c0.217,0.15,0.335,0.604,0.335,1.09
		c0,0.555-0.185,1.125-0.555,1.125C130.473,323.554,130.339,323.554,130.188,323.571 M127.939,312.409
		c0.537,0,1.578,0.252,1.578,0.957c0,0.621-0.555,1.006-1.142,1.006c-0.738,0-1.394-0.184-1.394-1.039
		C126.982,312.745,127.335,312.409,127.939,312.409"/>
	<path d="M132.018,323.503c-0.018-0.033-0.034-0.201-0.034-0.25c0-0.621-0.084-5.002-0.168-5.893
		c-0.017-0.051-0.033-0.117-0.066-0.135c-0.101-0.033-0.219-0.049-0.335-0.066c-0.421-0.051-0.891-0.117-0.907-0.604
		c0-0.354,0.033-0.656,0.134-1.395c0.285-0.15,0.855-0.234,1.41-0.234c0.604,0,1.242,0.084,1.561,0.252l0.102,0.234l0.017,1.125
		c0.604-0.906,1.477-1.209,2.551-1.176c2.249,0.051,2.954,2.568,2.954,4.668c0,0.436-0.033,0.855-0.084,1.24v0.119
		c0.084,0.117,0.336,0.133,0.571,0.133c0.369,0,0.788,0.051,0.806,0.453c0.05,0.236,0.066,0.453,0.066,0.621
		c0,0.404-0.101,0.723-0.302,0.924c-0.252,0.15-2.484,0.033-3.171,0.033c-0.136-1.141-0.035-2.232-0.035-3.373
		c0-1.545-0.168-2.686-1.41-2.686c-1.107,0-1.309,1.711-1.292,2.5c-0.067,1.275,0.151,3.744-0.302,3.559
		c-0.537-0.051-1.427,0.135-1.964,0C132.084,323.554,132.068,323.554,132.018,323.503"/>
	<path d="M140.543,319.626c0-2.248,1.191-4.598,4.179-4.463c2.148,0.217,3.273,2.098,3.273,4.127c0,2.283-1.142,4.264-3.692,4.348
		C141.886,323.638,140.543,322.026,140.543,319.626 M144.454,321.642c1.175,0,1.394-1.344,1.394-2.385
		c0-0.705-0.504-1.729-1.293-1.879c-1.225,0.084-1.477,1.057-1.544,2.164C143.01,320.567,143.262,321.642,144.454,321.642"/>
	<path d="M155.514,323.253c-0.034,0.066-0.101,0.133-0.168,0.184h-0.151c-0.437,0-1.477-0.234-1.477-0.756
		c0-0.369,0.789-2.803,0.855-2.869c0.219-0.453,0.756-0.336,1.175-0.402c0.471-0.018,0.437,0.973,0.537,1.275
		c0.588,1.074,2.334,1.023,2.167-0.453c-0.27-2.232-4.298-2.232-4.298-4.6c0-2.938,2.987-4.885,5.388-2.652h0.017h0.018
		c0.184-0.268,0.419-0.537,0.654-0.738c0.167-0.051,0.268-0.051,0.436-0.051c0.303,0,1.293,0.252,1.326,0.723
		c0.051,0.789-0.671,1.963-0.939,2.367c-0.352,0.52-0.436,0.871-1.192,0.871c-0.269,0-0.738-0.117-0.923-0.352
		c0.017-0.604,0.101-1.092-0.42-1.443c-0.168-0.135-0.369-0.219-0.604-0.219c-0.604,0.018-1.074,0.537-1.074,1.125
		c0,1.762,4.229,1.729,4.229,4.699c0,2.77-2.585,4.734-5.202,2.586C155.799,322.665,155.564,323.134,155.514,323.253"/>
	<path d="M161.774,318.872c0-2.082,1.141-4.096,3.759-4.129c2.216-0.035,3.693,1.393,3.693,3.238c0,0.537-0.134,1.158-0.437,1.779
		h-4.565c0.034,1.275,0.705,1.797,1.511,1.797c0.688,0,1.46-0.387,2.031-1.008c0.302-0.354,1.175,0.873,1.225,1.293
		c-0.587,1.326-2.232,1.795-3.558,1.729C163.133,323.554,161.774,321.171,161.774,318.872 M167.262,318.065
		c0-0.756-0.302-1.578-1.443-1.545c-0.806,0.018-1.46,0.354-1.595,1.563L167.262,318.065z"/>
	<path d="M169.931,318.872c0-2.082,1.142-4.096,3.76-4.129c2.216-0.035,3.692,1.393,3.692,3.238c0,0.537-0.135,1.158-0.437,1.779
		h-4.565c0.033,1.275,0.705,1.797,1.511,1.797c0.688,0,1.46-0.387,2.031-1.008c0.302-0.354,1.175,0.873,1.226,1.293
		c-0.588,1.326-2.233,1.795-3.559,1.729C171.291,323.554,169.931,321.171,169.931,318.872 M175.419,318.065
		c0-0.756-0.302-1.578-1.443-1.545c-0.806,0.018-1.46,0.354-1.595,1.563L175.419,318.065z"/>
	<path d="M183.172,322.429v-0.066c0.084-0.672,0.604-0.672,1.226-0.672h0.067c0.436,0,0.638,0.285,0.587,0.723
		c-0.017,0.738-0.084,1.225-0.939,1.225h-0.219c-0.284,0-0.554-0.084-0.688-0.318C183.106,322.983,183.123,322.782,183.172,322.429"
		/>
	<path d="M191.11,321.456c0-0.201,0-0.57,0.286-0.57h0.486l0.051-0.051c0.017-0.018,0.033-0.252,0.05-0.336v-0.168
		c-0.017-2.031-0.117-4.096-0.117-6.125c-0.051-0.354-0.738-0.035-1.007-0.371l-0.067-0.066l-0.017-1.846
		c3.155-0.018,3.743,0.033,4.397,0.1c2.501,0.219,3.491,2.721,3.407,5.154v0.199c0,4.248-1.712,5.994-6.093,6.043
		c-0.453,0-0.957,0.102-1.275-0.301C191.127,322.563,191.11,321.993,191.11,321.456 M194.148,320.147
		c0.018,0.285-0.05,0.504,0.319,0.504c1.913,0,2.417-6.363-0.269-6.363h-0.067L194.148,320.147z"/>
	<path d="M202.875,323.571c-0.235,0.016-0.504,0.033-0.806,0.033c-0.856,0-1.829-0.135-1.829-0.924c0-1.225-0.084-3.658-0.135-5.287
		c0-0.201-0.017-0.369-0.017-0.537h-0.033c-0.454-0.033-0.772-0.301-0.806-0.873c-0.034-0.586,0.722-0.889,1.527-0.889
		c0.822,0,1.695,0.336,1.695,0.939c0,0.32,0.05,5.07,0.218,5.305h0.79c0.217,0.15,0.335,0.604,0.335,1.09
		c0,0.555-0.185,1.125-0.555,1.125C203.161,323.554,203.027,323.554,202.875,323.571 M200.626,312.409
		c0.537,0,1.578,0.252,1.578,0.957c0,0.621-0.555,1.006-1.142,1.006c-0.738,0-1.394-0.184-1.394-1.039
		C199.669,312.745,200.023,312.409,200.626,312.409"/>
	<path d="M204.706,323.503c-0.018-0.033-0.034-0.201-0.034-0.25c0-0.621-0.084-5.002-0.168-5.893
		c-0.017-0.051-0.033-0.117-0.066-0.135c-0.101-0.033-0.219-0.049-0.335-0.066c-0.421-0.051-0.891-0.117-0.907-0.604
		c0-0.354,0.033-0.656,0.134-1.395c0.285-0.15,0.855-0.234,1.41-0.234c0.604,0,1.242,0.084,1.561,0.252l0.102,0.234l0.017,1.125
		c0.604-0.906,1.477-1.209,2.551-1.176c2.249,0.051,2.954,2.568,2.954,4.668c0,0.436-0.033,0.855-0.084,1.24v0.119
		c0.084,0.117,0.336,0.133,0.571,0.133c0.369,0,0.788,0.051,0.806,0.453c0.05,0.236,0.066,0.453,0.066,0.621
		c0,0.404-0.101,0.723-0.302,0.924c-0.252,0.15-2.484,0.033-3.171,0.033c-0.136-1.141-0.035-2.232-0.035-3.373
		c0-1.545-0.168-2.686-1.41-2.686c-1.107,0-1.309,1.711-1.292,2.5c-0.067,1.275,0.151,3.744-0.302,3.559
		c-0.537-0.051-1.427,0.135-1.964,0C204.772,323.554,204.755,323.554,204.706,323.503"/>
	<path d="M213.232,319.626c0-2.248,1.191-4.598,4.179-4.463c2.148,0.217,3.273,2.098,3.273,4.127c0,2.283-1.142,4.264-3.692,4.348
		C214.575,323.638,213.232,322.026,213.232,319.626 M217.142,321.642c1.175,0,1.394-1.344,1.394-2.385
		c0-0.705-0.504-1.729-1.293-1.879c-1.225,0.084-1.477,1.057-1.544,2.164C215.699,320.567,215.951,321.642,217.142,321.642"/>
	<path d="M226.422,317.009c0.101-1.98,0.772-3.861,1.763-4.617c1.376-1.359,5.556-0.904,5.689,1.479
		c0,1.291-0.201,1.561-1.561,1.561c-0.722,0-0.756-0.705-0.788-1.326c-0.052-1.092-2.904-1.191-2.787,2.887
		c0.05,1.896,0.554,3.895,1.494,4.18c0.537,0.168,1.225-0.252,1.461-0.705c0.1-0.504,0.066-1.023,0.049-1.578
		c-0.101,0-0.185,0.033-0.285,0.033h-0.101c-0.42-0.033-1.058,0.084-1.091-0.502c0-0.203-0.117-1.695,0.285-1.73
		c1.662-0.553,3.542-0.084,3.34,2.166c-0.218,2.316-0.587,4.33-3.424,4.33C227.362,323.185,226.254,319.979,226.422,317.009"/>
	<path d="M234.563,319.626c0-2.248,1.191-4.598,4.179-4.463c2.148,0.217,3.273,2.098,3.273,4.127c0,2.283-1.142,4.264-3.692,4.348
		C235.906,323.638,234.563,322.026,234.563,319.626 M238.473,321.642c1.175,0,1.394-1.344,1.394-2.385
		c0-0.705-0.504-1.729-1.293-1.879c-1.225,0.084-1.477,1.057-1.544,2.164C237.03,320.567,237.282,321.642,238.473,321.642"/>
	<path fill="#2F3919" d="M216.63,194.956l-11.343-42.862c-0.014-0.051-0.023-0.104-0.031-0.155l-6.117-42.826
		c-0.015-0.104-0.042-0.208-0.08-0.306l-5.479-13.914c-0.209-0.531-0.728-0.875-1.298-0.862l-4.479,0.106
		c-0.993,0.024-1.627,1.071-1.188,1.963l1.476,2.99c0.331,0.671,0.058,1.482-0.611,1.818l-3.338,1.673
		c-0.675,0.338-0.945,1.161-0.604,1.834l2.448,4.809c0.276,0.543,0.158,1.203-0.29,1.616l-2.003,1.85
		c-0.582,0.538-0.585,1.457-0.003,1.997l3.103,3.788c0.414,0.384,0.548,0.984,0.335,1.508l-3.216,4.534
		c-0.222,0.546-0.067,1.172,0.383,1.552l3.439,2.905c0.466,0.393,0.613,1.047,0.362,1.601l-2.02,5.05
		c-0.223,0.493-0.133,1.07,0.229,1.472l4.095,3.086c0.461,0.512,0.467,1.287,0.013,1.806l-3.579,4.094
		c-0.48,0.55-0.441,1.382,0.09,1.884l2.944,4.47c0.584,0.553,0.564,1.488-0.042,2.016l-3.742,2.763
		c-0.454,0.396-0.595,1.042-0.345,1.591l1.672,5.337c0.29,0.637,0.05,1.391-0.557,1.741l-3.43,1.983
		c-0.488,0.282-0.752,0.837-0.662,1.395l0.554,3.44c0.123,0.758-0.404,1.466-1.166,1.566l-3.891,0.511
		c-0.677,0.089-1.184,0.666-1.184,1.35v3.753c0,0.787-0.666,1.41-1.451,1.357l-4.853-0.326c-0.785-0.053-1.451,0.57-1.451,1.357
		v3.986c0,0.857-0.784,1.501-1.625,1.334l-4.063-0.804c-0.642-0.127-1.283,0.222-1.526,0.829l-2.009,4.211
		c-0.296,0.738-1.158,1.066-1.87,0.712l-3.114-1.435c-0.646-0.323-1.434-0.084-1.79,0.546l-1.316,2.321
		c-0.384,0.678-1.257,0.895-1.914,0.477l-3.077-1.957c-0.587-0.373-1.36-0.243-1.794,0.301l-2.114,3.574l-3.321-2.688
		c-0.42-0.34-1.031-0.301-1.403,0.092l-2.534,2.672c-0.449,0.475-1.22,0.42-1.597-0.115l-1.65-2.334
		c-0.35-0.494-1.047-0.584-1.511-0.197l-1.997,1.672c-0.425,0.355-1.055,0.314-1.429-0.096l-1.808-1.975
		c-0.386-0.422-1.042-0.451-1.463-0.064l-1.23,1.127c-0.381,0.35-0.961,0.365-1.359,0.037l-1.563-1.291
		c-0.399-0.329-0.979-0.313-1.36,0.037l-0.507,0.467c-0.386,0.355-0.976,0.365-1.373,0.027l-2.569-0.137
		c-0.345,0.262-8.404,2.512-8.404,2.512c-0.46-0.301,13.695-0.23,13.695-0.23c0.029,0,0.059,0.002,0.087,0.004l23.037,1.934
		c0.107,0.27,0.3,0.51,0.574,0.67l10.731,5.357c0.258,0.15,0.558,0.213,0.854,0.178l60.472-7.367
		C216.299,196.556,216.841,195.755,216.63,194.956"/>
	<path d="M252.174,75.638c-9.87-3.271-19.669-5.675-29.759-6.484c-5.23-0.42-10.319,0.42-15.367,1.656
		c-2.178,0.533-4.348,1.146-6.489,1.833c-1.424,0.457-1.561,1.107-0.589,1.938c1.761,1.503,3.578,1.782,6.152,0.877
		c3.281-1.155,6.53-2.325,9.75-3.494c2.432-0.884,4.739-0.654,7.003,0.28c0.799,0.33,1.681,0.592,2.363,1.047
		c3.243,2.164,7.212,2.795,11.237,3.444c2.525,0.408,5.037,0.958,7.791,1.49c-0.341,0.229-0.496,0.383-0.699,0.464
		c-5.02,2.003-10.087,4.063-15.281,6.04c-0.203,0.077-0.419,0.142-0.634,0.208c-0.078,1.729-0.4,3.392-0.142,5.196
		c0.359-0.112,0.747-0.204,1.198-0.252c0.35,2.934,2.23,5.299,4.204,7.745c1.918,2.378,6.249,3.308,8.859,2.573
		c5.686-1.603,9.324-4.771,10.618-9.687c0.554-2.107,0.789-4.263,1.274-6.319c0.252-1.066,0.604-2.133,1.158-3.072
		C256,79.129,254.78,76.502,252.174,75.638"/>
	<path fill="#414042" d="M239.614,96.544c-1.722-0.13-3.143-0.843-3.657-1.48c-1.65-2.047-3.21-3.98-3.443-5.938l-0.278-2.344
		c3.22-1.248,6.4-2.522,9.494-3.763l3.437-1.374c0.552-0.221,0.931-0.5,1.182-0.685c0.051-0.037,0.109-0.082,0.184-0.131l3.716-2.5
		c0.353,0.099,0.718,0.211,1.096,0.336c0.385,0.128,0.57,0.331,0.64,0.444c-0.633,1.104-1.119,2.394-1.481,3.934
		c-0.24,1.02-0.421,2.033-0.595,3.014c-0.201,1.129-0.39,2.195-0.658,3.216c-0.597,2.264-2.089,5.47-8.151,7.177
		C240.922,96.5,240.429,96.607,239.614,96.544"/>
	<g opacity="0.5">
		<g>
			<defs>
				<rect id="SVGID_1_" x="129.41" y="220.673" width="127.905" height="29.861"/>
			</defs>
			<clipPath id="SVGID_2_">
				<use xlink:href="#SVGID_1_"  overflow="visible"/>
			</clipPath>
			<path clip-path="url(#SVGID_2_)" fill="#D1D3D4" d="M257.316,235.603c0,8.246-28.633,14.93-63.953,14.93
				s-63.952-6.684-63.952-14.93c0-8.244,28.632-14.93,63.952-14.93S257.316,227.358,257.316,235.603"/>
		</g>
	</g>
	<path fill="#238A43" d="M210.759,218.694c2.744,0.523,6.736,1.633,9.357,2.6c2.621,0.969,5.176,2.141,7.02,4.238
		c0.585,0.666,0.798,4.506-2.749,3.73l-6.552-2.049c1.829-0.115,6.872,0.689,6.521,3.389c-0.117,0.893-1.255,1.219-2.146,1.344
		c-3.927,0.553-9.935,0.629-13.676-0.682c-3.741-1.313-6.822-3.518-9.203-6.543"/>
	<path fill="#2F3919" d="M199.713,226.292c5.476,6.563,15.467,9.477,23.801,6.99c1.941-0.578,3.147-2.039,2.074-4.049
		c-1.248-2.336-4.854-2.766-7.206-2.754c-1.425,0.006-1.428,2.221,0,2.215c0.655-0.004,1.718-0.111,2.287,0.186
		c1.23,0.643,1.511,1.85,0.185,2.539c-1.413,0.732-4.957,0.189-6.474,0.074c-5.333-0.406-9.676-2.662-13.101-6.768
		C200.366,223.63,198.806,225.204,199.713,226.292"/>
	<path fill="#2F3919" d="M211.011,220.132c3.166,0.643,6.328,1.473,9.356,2.602c1.806,0.672,3.606,1.443,5.112,2.664
		c1.391,1.127,2.387,3.498-0.546,3.129c-1.411-0.178-1.397,2.039,0,2.215c3.178,0.4,5.339-2.662,3.618-5.508
		c-1.362-2.258-4.784-3.559-7.105-4.449c-3.181-1.221-6.51-2.111-9.847-2.787C210.208,217.714,209.613,219.849,211.011,220.132"/>
	<path fill="#4EB748" d="M225.94,181.284c0,0,5.241,0.554,5.352-0.443c0.111-0.995-0.686-2.125-0.686-2.125l-2.194-1.862
		c2.77,2.548,3.655,3.212,5.096,1.219c1.44-1.994-3.987-5.982-5.096-6.536c-1.107-0.554-3.766,2.216-3.766,2.216"/>
	<path fill="#238A43" d="M226.607,182.294c0,0-0.086-4.392,0.073-5.845c0.296-2.692,2.517-4.361,2.517-4.361l-5.518,0.991
		l-0.269,6.158L226.607,182.294z"/>
	<path fill="#2F3919" d="M225.983,174.535c0.557-0.573,1.472-1.662,2.269-1.823c0.799-0.162,1.769,0.845,2.445,1.424
		c0.728,0.624,2.494,1.964,2.486,3.05c-0.018,2.328-3.015-0.731-3.435-1.115c-1.05-0.961-2.621,0.602-1.566,1.566
		c1.646,1.506,3.981,3.942,6.144,1.843c1.754-1.702,0.972-3.666-0.429-5.306c-1.109-1.298-3.018-3.273-4.742-3.738
		c-1.758-0.474-3.632,1.395-4.739,2.533C223.42,173.991,224.987,175.559,225.983,174.535"/>
	<path fill="#2F3919" d="M228.118,181.909c1.08,0.321,2.419,0.68,3.538,0.402c1.979-0.49,1.307-2.929,0.46-4.154
		c-0.805-1.166-2.727-0.06-1.913,1.118c0.231,0.334,0.427,0.708,0.515,1.107c0.018,0.083,0.079,0.264,0.045,0.238
		c0.06-0.245,0.188-0.398,0.385-0.461c0.086-0.029,0.074-0.028-0.032,0.005c-0.014-0.008-0.201,0.017-0.437,0.005
		c-0.6-0.031-1.32-0.203-1.972-0.396C227.336,179.366,226.751,181.503,228.118,181.909"/>
	<path fill="#58595B" d="M233.333,96.848c0.514,0.453,1.183,0.892,1.967,1.219c0.755,0.315,1.257,0.369,1.438,0.377
		c6.291,0.287,8.717-2.286,9.995-4.248c0.576-0.883,1.091-1.836,1.637-2.846c0.176-0.324,0.358-0.656,0.541-0.987
		C242.785,88.767,236.429,91.503,233.333,96.848"/>
	<path fill="#238A43" d="M180.553,227.782c-16.792,0-25.705-6.563-32.866-11.834c-1.546-1.139-3.007-2.213-4.49-3.189
		c-7.563-4.973-20.253-13.078-32.832-13.078c-3.409,0-15.006,3.967-18.155,4.859l7.047-5.963c1.683-1.236,3.358-2.174,4.98-2.785
		c3.443-1.303,6.898-0.67,11.544-0.67c5.331,0,11.749,0.627,18.278,2.309c1.426,0.367,4.462,0.76,6.441,0.76
		c10.566,0,29.715-6.953,42.106-22.598c8.577-10.829,11.245-24.482,7.715-39.481c-4.227-17.953-6.976-39.348,9.414-45.494
		c4.213-1.58,8.949-2.381,14.08-2.381c8.127,0,14.665,2.027,15.589,2.328l0.056,0.016l0.1,0.038
		c0.255,0.095,25.419,9.769,25.123,28.149c-0.288,17.862-17.228,22.435-19.158,22.896l-0.159,0.038l-0.162,0.019
		c-1.497,0.166-2.98,0.25-4.411,0.25c-5.022,0-9.617-1.813-14.264-3.914c-0.825-0.372-3.157-0.518-2.298-0.404
		c10.968,1.438,10.575,2.49,18.996,25.763c5.951,16.445-5.619,30.459-13.103,43.747c-6.437,11.432-17.458,18.574-31.035,20.113
		C186.126,227.61,183.254,227.782,180.553,227.782"/>
	<path fill="#4EB748" d="M181.112,227.405c2.646,0,5.465-0.166,8.377-0.496c12.928-1.467,23.414-8.252,29.526-19.107
		c7.188-12.762-4.225-72.896-4.225-72.896c1.238,0.925,2.609,1.729,4.075,2.392c4.367,1.975,8.596,2.894,13.309,2.894
		c1.356,0,2.766-0.08,4.19-0.238c1.45-0.348,17.171-4.492,17.433-20.729c0.271-16.84-23.57-25.989-23.812-26.079
		c-0.019-0.005-6.696-2.25-15.066-2.25c-4.894,0-9.395,0.757-13.376,2.25c-11.483,4.306-13.925,17.611-7.915,43.14
		c3.781,16.063,0.896,30.722-8.344,42.388c-13.181,16.641-34.706,22.682-45.962,22.682h-0.002c-2.234,0-4.213-0.219-5.88-0.646
		c-6.42-1.654-12.309-2.492-17.503-2.492c-4.399,0-8.253,0.613-11.452,1.822c-1.569,0.592-3.068,1.49-4.427,2.486
		c3.443-0.975,21.926,2.439,35.038,11.457c1.535,1.057,10.05,6.275,11.654,7.457C154.081,226.833,164.919,227.405,181.112,227.405"
		/>
	<path fill="#F9ED32" d="M212.053,134.38c0,0,3.832,7.392,5.661,25.821c5.248,52.875-36.921,69.04-79.287,54.612
		c0,0,20.26,16.883,49.554,12.498c28.043-4.197,44.035-24.836,44.885-37.414c1.568-23.15-3.36-36.016-6.052-42.73
		c-1.849-4.613-3.12-6.24-3.12-6.24L212.053,134.38z"/>
	<path fill="#DCC025" d="M219.725,138.981c0,0,0.73,0.799,1.181,3.608c0.415,2.592,2.086,6.354,3.065,8.861
		c5.105,13.071,9.191,22.769,4.44,37.516c-3.863,11.992-13.285,31.136-40.591,35.113c-25.404,3.703-49.313-9.236-49.394-9.266
		c0,0,21.112,16.221,48.618,14.018c28.753-2.305,48.101-30.613,49.332-43.152c1.032-10.512-7.423-31.25-11.466-41.872
		C222.458,137.359,220.83,139.346,219.725,138.981"/>
	<path fill="#2F3919" d="M203.694,122.649c1.624,10.819,12.604,17.312,22.571,18.727c8.662,1.229,16.456-0.948,22.755-7.186
		c8.246-8.167,8.775-21.049,1.902-30.2c-4.986-6.639-12.954-12.045-20.772-14.851c-10.245-3.677-25.08-4.156-34.433,1.945
		c-10.579,6.901-9.729,21.738-8.107,32.641c1.24,8.341,3.926,16.42,3.889,24.919c-0.029,6.828-1.552,13.606-4.688,19.688
		c-5.247,10.175-14.393,17.783-24.585,22.714c-8.367,4.045-19.078,7.528-28.472,5.659c-16.061-3.193-32.291-5.343-43.388,9.18
		c-0.718,0.939,0.63,1.996,1.516,1.516c18.278-9.912,35.757,3.518,50.904,12.91c10.606,6.576,22.848,9.104,35.204,9.549
		c13.58,0.488,26.72-0.775,38.256-8.512c10.242-6.869,17.628-17.492,20.011-29.638c1.538-7.837,1.076-15.91-0.785-23.65
		c-1.116-4.638-2.73-9.144-4.672-13.499c-2.154-4.828-5.425-9.476-6.703-14.646c-0.341-1.383-2.479-0.797-2.136,0.589
		c1.973,7.983,7.321,14.965,9.871,22.828c2.475,7.633,3.727,15.716,2.9,23.731c-1.417,13.75-9.287,25.958-20.974,33.252
		c-12.328,7.697-26.921,8.219-41.046,7.01c-12.981-1.113-23.512-5.465-34.275-12.5c-14.173-9.266-31.139-18.303-47.674-9.338
		c0.505,0.506,1.01,1.012,1.516,1.516c10.604-13.877,26.318-10.824,41.368-8.061c6.6,1.213,13.692-0.193,20.006-2.15
		c17.24-5.347,33.367-17.776,38.375-35.737c3.502-12.562-0.036-23.969-2.046-36.401c-2.211-13.673-2.347-30.292,13.767-34.508
		c8.96-2.344,19.852-1.762,28.354,2.247c8.876,4.185,18.879,11.143,21.063,21.344c2.451,11.447-5.948,22.941-17.16,25.437
		c-11.632,2.587-28.237-4.19-30.177-17.111C205.619,120.655,203.484,121.251,203.694,122.649"/>
	<path fill="#4EB748" d="M185.826,208.999c2.863-0.4,5.581,1.734,7.771,4.211c1.275,1.441,2.485,3.08,3.141,5.123
		c0.943,2.949,0.594,6.43-0.504,9.287c-1.097,2.855-2.94,6.283-4.841,8.264c3.103,1.422,6.762,3.1,9.863,4.521
		c1.253,0.574,2.545,1.176,3.456,2.209c0.911,1.035-0.179,3.002-0.92,3.354c-0.755,0.355-0.804,1.344-1.69,1.582
		c-4.739,1.27-10.936,0.754-13.979-2.508l3.124,2.082c11.881,7.891-13.727-0.467-14.704-1.268
		c-2.797-2.289-4.495-22.982-3.537-27.934L185.826,208.999"/>
	<path fill="#238A43" d="M178.587,246.146c0,0-1.793-2.547-2.313-5.396c-0.743-4.086-2.258-22.307-2.258-22.307l-1.688,9.834
		l1.775,14.131L178.587,246.146z"/>
	<path fill="#238A43" d="M196.233,227.62c0,0,0.256-7.766-0.264-10.615c-0.744-4.084-10.144-8.006-10.144-8.006
		s8.258,3.945,8.258,14.58c0,8.369-3.629,12.172-3.629,12.172L196.233,227.62z"/>
	<path fill="#2F3919" d="M190.532,236.706c2.317,1.063,4.635,2.125,6.951,3.186c2.046,0.938,6.762,2.193,5.336,5.072
		c-0.998,2.014-4.393,2.002-6.235,1.975c-2.932-0.041-5.814-0.746-7.979-2.814c-1.031-0.984-2.6,0.58-1.566,1.566
		c4.124,3.941,13.674,5.527,17.625,0.627c1.57-1.947,1.56-3.918-0.441-5.494c-3.451-2.719-8.593-4.207-12.571-6.029
		C190.364,234.204,189.236,236.112,190.532,236.706"/>
	<path fill="#2F3919" d="M171.936,218.399c-1.079,6.664-0.193,14.086,0.941,20.691c0.824,4.803,1.46,7.271,5.992,8.855
		c3.827,1.336,10.269,4.369,14.431,3.5c4.24-0.885-0.107-4.26-1.796-5.414c-1.181-0.807-2.29,1.113-1.118,1.914
		c0.941,0.643,1.801,1.297,2.604,2.098c-0.841-0.838,0.845-0.418-0.516-0.814c-1.557-0.453-3.301-0.557-4.894-0.963
		c-2.892-0.736-7.403-1.406-9.909-3.105c-2.912-1.975-2.952-8.203-3.289-11.373c-0.508-4.764-1.084-10.029-0.311-14.799
		C174.298,217.593,172.166,216.993,171.936,218.399"/>
	<path fill="#2F3919" d="M191.875,236.534c4.029-4.711,7.413-11.537,5.812-17.873c-1.34-5.313-6.444-10.9-12.161-10.902
		c-1.426-0.002-1.428,2.215,0,2.215c5.759,0.002,10.331,6.971,10.326,12.105c-0.003,4.627-2.603,9.449-5.543,12.887
		C189.386,236.044,190.946,237.618,191.875,236.534"/>
	<path fill="#2F3919" d="M200.962,247.413c0.311-3.785-4.837-5.164-7.463-6.467c-1.273-0.633-2.396,1.279-1.118,1.912
		c1.341,0.666,2.742,1.209,4.06,1.92c1.04,0.563,2.417,1.275,2.306,2.635C198.63,248.833,200.846,248.825,200.962,247.413"/>
	<path fill="#5C72AB" d="M252.028,212.765l-43.446,21.031c-1.707,0.826-3.761,0.111-4.588-1.596l-13.839-28.59
		c-0.827-1.707-0.112-3.76,1.595-4.586l43.446-21.033c1.707-0.826,3.761-0.112,4.588,1.595l13.839,28.59
		C254.45,209.884,253.736,211.937,252.028,212.765"/>
	<path fill="#1A2139" d="M251.505,213.017l-40.66,19.684c-1.707,0.826-3.761,0.111-4.587-1.596l-12.537-25.896
		c-0.826-1.707-0.112-3.762,1.595-4.586l40.66-19.684c1.707-0.827,3.761-0.112,4.588,1.595l12.536,25.898
		C253.926,210.138,253.212,212.19,251.505,213.017"/>
	<path fill="none" stroke="#1A2139" stroke-width="2.012" stroke-miterlimit="10" d="M251.505,213.017l-43.447,21.031
		c-1.707,0.826-3.761,0.113-4.587-1.594l-13.84-28.59c-0.826-1.707-0.112-3.762,1.595-4.588l43.447-21.03
		c1.707-0.828,3.761-0.114,4.587,1.594l13.84,28.59C253.926,210.138,253.212,212.19,251.505,213.017z"/>
	<path fill="none" stroke="#1A2139" stroke-width="3.018" stroke-miterlimit="10" d="M219.881,184.88l-14.036,6.795
		c-0.567,0.275-1.251,0.037-1.525-0.53l-2.317-4.786c-0.274-0.568-0.037-1.251,0.53-1.526l14.036-6.794
		c0.568-0.275,1.252-0.038,1.526,0.529l2.317,4.787C220.687,183.922,220.45,184.606,219.881,184.88z"/>
	
		<line fill="none" stroke="#5C72AB" stroke-width="2.012" stroke-miterlimit="10" x1="202.312" y1="196.468" x2="215.679" y2="224.079"/>
	
		<line fill="none" stroke="#5C72AB" stroke-width="2.012" stroke-miterlimit="10" x1="226.184" y1="184.364" x2="239.55" y2="211.976"/>
	<path fill="#2F3919" d="M203.819,123.811c0.324-1.029,1.417-1.67,2.352-1.764c0.721-0.071,1.341-0.564,1.341-1.34
		c0-0.669-0.616-1.413-1.341-1.341c-2.254,0.226-4.234,1.505-4.937,3.732C200.713,124.748,203.3,125.454,203.819,123.811"/>
	<path fill="#238A43" d="M235.926,125.154c-0.338-1.625,0.187-3.624,1.599-4.558s2.8-0.762,4.397,0.255"/>
	<path fill="#2F3918" d="M235.954,125.432c0,0-0.026-0.034-0.075-0.099c-0.044-0.067-0.134-0.151-0.199-0.289
		c-0.157-0.271-0.33-0.673-0.408-1.202c-0.088-0.526-0.07-1.173,0.146-1.849c0.209-0.669,0.644-1.379,1.307-1.881
		c0.094-0.068,0.139-0.112,0.274-0.198l0.198-0.116c0.148-0.079,0.376-0.206,0.551-0.26c0.363-0.146,0.762-0.224,1.144-0.237
		c0.774-0.027,1.446,0.222,1.89,0.533c0.459,0.291,0.742,0.633,0.919,0.88c0.175,0.25,0.25,0.414,0.25,0.414
		s-0.173-0.006-0.476-0.018c-0.288-0.019-0.689-0.032-1.103-0.033c-0.423,0.018-0.839,0.073-1.207,0.207
		c-0.188,0.06-0.368,0.143-0.555,0.244l-0.263,0.15l-0.192,0.124l-0.099,0.069c-0.32,0.234-0.628,0.552-0.89,0.926
		c-0.262,0.372-0.491,0.785-0.669,1.173c-0.172,0.387-0.313,0.756-0.398,1.016C236.006,125.27,235.954,125.432,235.954,125.432"/>
	<path fill="#2F3918" d="M201.135,99.578c-0.088,0.288-0.487,0.349-0.635,0.086c-0.891-1.582-0.3-3.834,1.127-4.91
		c1.436-1.083,3.52-0.997,4.686,0.338c0.195,0.223,0.035,0.577-0.26,0.588c-1.121,0.039-1.86,0.186-2.814,0.934
		C202.289,97.359,201.485,98.436,201.135,99.578"/>
	<path fill="#238A43" d="M197.725,176.121c0,0-0.746,10.95,0.671,12.82c2.696,3.56,6.255,0.79,11.051-4.952l-0.926-0.679
		c-1.301-1.021,2.503,2.743,3.513,2.326c2.08-0.858,2.059-1.915,3.52-3.909c1.461-1.993-4.047-5.981-5.171-6.535
		s-9.14,6.567-9.14,6.567l3.238-3.17l-0.019-4.505"/>
	<path fill="#4EB748" d="M199.072,174.125c0,0-0.486,11.794,0.661,12.82c2.806,2.511,4.947-0.027,9.674-5.77l0.304,0.138
		c-1.281-1.021,2.466,2.744,3.463,2.327c2.049-0.859,2.027-1.915,3.468-3.909s-3.988-5.981-5.096-6.535s-9.007,6.566-9.007,6.566
		l3.191-3.169l-0.019-4.505"/>
	<path fill="#238A43" d="M212.053,183.128c0,0,3.471-2.887,3.661-4.548c0.095-0.83,0.727,2.233,0.727,2.233l-3.268,3.419
		L212.053,183.128z"/>
	<path fill="#2F3919" d="M197.963,174.717c-0.073,1.832-0.105,3.667-0.102,5.5c0.006,2.218-0.242,5.002,0.542,7.128
		c0.596,1.614,2.548,2.521,4.206,2.184c3.198-0.653,5.685-4.678,7.58-6.978c0.9-1.092-0.658-2.668-1.566-1.565
		c-1.473,1.784-3.802,5.67-6.231,6.309c-2.192,0.575-2.122-1.74-2.215-3.215c-0.195-3.109-0.123-6.251,0.002-9.362
		C200.237,173.292,198.021,173.294,197.963,174.717"/>
	<path fill="#2F3919" d="M204.604,172.681c0.006,1.501,0.012,3.003,0.019,4.505c0.006,1.425,2.221,1.428,2.215,0
		c-0.006-1.502-0.012-3.004-0.018-4.505C206.814,171.255,204.598,171.252,204.604,172.681"/>
	<path fill="#2F3919" d="M217.597,180.883c1.1-2.157-0.696-4.167-2.214-5.581c-1.107-1.033-2.792-2.857-4.453-2.592
		c-1.77,0.283-3.524,2.116-4.867,3.194c-1.471,1.179-2.906,2.407-4.308,3.667c-1.063,0.957,0.509,2.519,1.566,1.567
		c1.871-1.683,3.786-3.35,5.816-4.836c0.981-0.719,1.69-1.401,2.536-1.137c0.988,0.308,4.6,3.442,4.011,4.599
		C215.039,181.033,216.949,182.155,217.597,180.883"/>
	<path fill="#2F3919" d="M210.494,181.123c-0.326-0.252-0.602-0.504-1.047-0.497c-0.667,0.01-1.324,0.708-1.067,1.402
		c0.281,0.761,1.107,1.345,1.713,1.836c0.723,0.585,1.593,1.316,2.544,1.467c2.193,0.346,4.163-2.766,4.962-4.447
		c0.607-1.282-1.302-2.407-1.913-1.118c-0.227,0.477-0.498,0.937-0.791,1.375c-0.288,0.434-0.604,0.844-0.975,1.211
		c-0.208,0.207-1.067,0.815-0.841,0.818c-0.501-0.007-1.15-0.656-1.517-0.951c-0.268-0.217-0.529-0.444-0.78-0.681
		c-0.284-0.269-0.498-0.726-0.267-0.099c-0.355,0.468-0.712,0.935-1.068,1.402c-0.219,0.031-0.392-0.02-0.52-0.151
		C210.042,183.551,211.621,181.995,210.494,181.123"/>
	<path fill="#2F3919" d="M213.413,183.101c-1.22,0.158-2.782,0.271-3.924-0.28c-1.277-0.619-2.402,1.291-1.118,1.912
		c1.527,0.739,3.384,0.799,5.042,0.584c0.599-0.078,1.102-0.454,1.108-1.108C214.526,183.669,214.006,183.024,213.413,183.101"/>
	<path fill="#2F3918" d="M210.45,106.075c0,1.591-1.29,2.88-2.881,2.88c-1.59,0-2.88-1.289-2.88-2.88s1.29-2.88,2.88-2.88
		C209.16,103.195,210.45,104.484,210.45,106.075"/>
	<path fill="#FFFFFF" d="M208.91,105.262c0,0.255-0.207,0.462-0.462,0.462s-0.462-0.207-0.462-0.462
		c0-0.256,0.207-0.462,0.462-0.462S208.91,105.006,208.91,105.262"/>
	<path fill="#2F3919" d="M205.524,105.855c-0.367,0.117-0.735,0.233-1.104,0.351c-0.676,0.214-0.387,1.285,0.296,1.068
		c0.367-0.117,0.734-0.233,1.102-0.351C206.495,106.708,206.206,105.638,205.524,105.855"/>
	<path d="M232.2,81.987c-1.081,0.557-2.306,0.949-3.514,1.082c-10.926,1.2-21.004,4.616-30.668,9.242
		c-2.299,1.101-4.789,1.371-7.547,0.004c-7.884-3.912-1.386,6.036,5.546,8.348c1.233,0.412,1.807,1.085,2.247,2.233
		c1.09,2.844,2.21,5.684,3.467,8.467c1.078,2.39,3.106,3.538,5.533,4.105c5.084,1.189,9.42-0.298,13.456-2.737
		c7.054-4.262,9.585-11.328,10.209-19.43c0.159-2.05,0.751-3.532,2.339-4.35C232.56,86.6,232.525,84.341,232.2,81.987"/>
	<path fill="#414042" d="M210.125,111.816c-0.899,0-1.821-0.109-2.742-0.325c-2.119-0.494-2.746-1.308-3.109-2.111
		c-1.257-2.783-2.371-5.623-3.388-8.276c-0.536-1.401-1.58-3.375-4.436-4.328c-0.479-0.159-0.955-0.37-1.421-0.616
		c1.278-0.175,2.561-0.567,3.831-1.175c10.35-4.954,20.007-7.871,29.523-8.917c0.029-0.003,0.059-0.006,0.087-0.01
		c0.048,0.349,0.103,0.701,0.165,1.058c-1.666,1.996-1.854,4.424-1.929,5.389c-0.645,8.361-3.268,13.502-8.507,16.669
		C215.214,110.975,212.647,111.816,210.125,111.816"/>
	<path fill="#58595B" d="M215.249,100.302c-5.183,0-9.727,2.666-12.336,6.68c0.342,0.811,0.69,1.622,1.056,2.429
		c0.363,0.805,0.99,1.617,3.109,2.112c0.921,0.215,1.843,0.324,2.742,0.324c2.522,0,5.089-0.84,8.075-2.644
		c2.555-1.544,4.483-3.563,5.868-6.19C221.361,101.313,218.427,100.302,215.249,100.302"/>
	<path fill="#ECDD31" d="M180.152,74.512c-1.057-5.87-1.85-14.622-0.135-20.079c2.175-6.921,5.346-9.096,13.751-9.536
		c1.039-0.055,2.081-0.097,3.107-0.084c2.751,0.036,5.081-0.903,7.305-2.546c2.194-1.621,4.548-3.104,6.921-4.532
		c2.807-1.689,5.594-1.735,8.221-0.601c6.079,2.625,11.409,10.196,14.785,15.003c0.52,0.739,0.94,1.532,1.5,2.452
		c5.02-2.23,9.832-4.678,14.129-7.874c2.938-2.185,5.39-2.465,7.846-0.534c3.795,2.984,5.521,6.839,4.202,11.64
		c-2.831,10.308-9.069,19.349-19.333,26.539c-15.155,10.618-32.094,16.523-50.562,17.311c-12.058,0.514-22.186-2.686-30.471-8.836
		c-3.931-2.918-4.917-6.973-3.819-11.598c0.721-3.034,2.797-4.128,6.486-4.505C169.339,76.196,174.606,75.297,180.152,74.512
		 M180.536,75.327c0.758,2.158,56.263-16.814,55.325-19.487c-1.207,3.738-4.104,5.936-7.288,7.831
		c-10.055,5.985-20.993,9.877-32.459,12.301C190.798,77.094,185.407,78.075,180.536,75.327"/>
	<path fill="#DCC028" d="M257.582,46.183c-2.456-1.931-4.908-1.652-7.846,0.533c-4.297,3.196-9.109,5.644-14.129,7.874
		c-0.56-0.92-0.98-1.713-1.5-2.452c-3.376-4.807-8.706-12.379-14.785-15.003c-2.627-1.134-5.414-1.089-8.22,0.601
		c-2.374,1.428-4.728,2.911-6.922,4.531c-2.224,1.644-4.554,2.583-7.305,2.547c-1.027-0.013-2.068,0.029-3.107,0.083
		c-7.804,0.409-11.095,2.314-13.267,8.125c2.207-3.206,5.542-4.413,11.566-4.728c1.038-0.054,2.079-0.097,3.106-0.083
		c2.752,0.035,5.081-0.904,7.305-2.547c2.194-1.621,4.548-3.104,6.921-4.532c2.807-1.689,5.595-1.735,8.221-0.601
		c6.079,2.625,11.409,10.197,14.786,15.003c0.519,0.739,0.94,1.532,1.5,2.453c0.438-0.195,0.874-0.395,1.31-0.594
		c0.247-0.488,0.466-1.003,0.645-1.555c0.129,0.368,0.26,0.726,0.391,1.077c4.17-1.949,8.161-4.109,11.784-6.804
		c2.937-2.185,5.389-2.464,7.845-0.533c3.795,2.984,5.521,6.839,4.203,11.64c-0.624,2.269-1.423,4.473-2.383,6.612
		c1.765-3.178,3.124-6.519,4.083-10.009C263.102,53.022,261.376,49.167,257.582,46.183"/>
	<path fill="#5E73AD" d="M180.152,74.512c4.896,2.739,10.041,1.314,15.396,0.178c11.547-2.452,22.566-6.372,32.703-12.387
		c3.208-1.903,6.131-4.11,7.354-7.853c0.938,2.672,1.965,4.876,2.456,7.222c0.41,1.957-1.011,3.896-2.878,5.3
		c-2.955,2.222-6.007,4.461-9.332,6.211c-9.905,5.214-20.422,8.762-31.497,10.143c-2.721,0.338-5.49,0.15-8.14-0.096
		c-2.293-0.213-3.757-1.403-4.32-3.309C181.341,78.054,180.909,76.67,180.152,74.512"/>
	<path fill="#506491" d="M231.389,60.191c1.872-1.482,3.411-3.279,4.215-5.741c0.938,2.673,1.965,4.877,2.456,7.223
		c0.41,1.957-1.011,3.896-2.878,5.3L231.389,60.191z"/>
</g>
</svg>
