<?xml version="1.0" encoding="utf-8"?>
<!-- Generator: Adobe Illustrator 16.0.0, SVG Export Plug-In . SVG Version: 6.00 Build 0)  -->
<!DOCTYPE svg PUBLIC "-//W3C//DTD SVG 1.1//EN" "http://www.w3.org/Graphics/SVG/1.1/DTD/svg11.dtd">
<svg version="1.1" id="Layer_1" xmlns="http://www.w3.org/2000/svg" xmlns:xlink="http://www.w3.org/1999/xlink" x="0px" y="0px"
	 width="82px" height="89px" viewBox="0 0 82 89" enable-background="new 0 0 82 89" xml:space="preserve">
<g>
	<path fill="#2F3919" d="M230.633,243.828l-14.201-53.669c-0.018-0.064-0.03-0.13-0.04-0.195l-7.659-53.625
		c-0.02-0.131-0.054-0.26-0.101-0.383l-6.859-17.422c-0.262-0.666-0.912-1.096-1.627-1.08l-5.607,0.133
		c-1.245,0.031-2.037,1.342-1.487,2.458l1.847,3.744c0.416,0.84,0.073,1.856-0.766,2.277l-4.18,2.095
		c-0.844,0.423-1.184,1.454-0.756,2.296l3.067,6.021c0.345,0.68,0.198,1.506-0.364,2.023l-2.507,2.316
		c-0.729,0.674-0.733,1.825-0.005,2.501l3.886,4.743c0.519,0.48,0.685,1.232,0.418,1.888l-4.025,5.677
		c-0.278,0.684-0.085,1.467,0.479,1.943l4.307,3.638c0.582,0.492,0.769,1.311,0.453,2.004l-2.529,6.323
		c-0.278,0.618-0.166,1.34,0.286,1.843l5.129,3.864c0.577,0.641,0.584,1.612,0.015,2.261l-4.48,5.126
		c-0.602,0.688-0.553,1.73,0.112,2.358l3.686,5.597c0.731,0.692,0.707,1.863-0.052,2.524l-4.686,3.459
		c-0.569,0.496-0.746,1.305-0.433,1.992l2.093,6.683c0.365,0.797,0.064,1.741-0.696,2.18l-4.295,2.484
		c-0.611,0.353-0.941,1.048-0.829,1.746l0.695,4.308c0.153,0.949-0.507,1.835-1.461,1.961l-4.871,0.64
		c-0.849,0.111-1.482,0.834-1.482,1.69v4.699c0,0.986-0.834,1.766-1.816,1.7l-6.078-0.408c-0.982-0.066-1.816,0.714-1.816,1.7v4.991
		c0,1.074-0.981,1.88-2.035,1.671l-5.087-1.007c-0.802-0.159-1.606,0.277-1.91,1.038l-2.517,5.272
		c-0.369,0.925-1.45,1.336-2.34,0.892l-3.901-1.796c-0.81-0.405-1.795-0.105-2.24,0.684l-1.648,2.906
		c-0.481,0.849-1.575,1.12-2.396,0.597l-3.854-2.45c-0.733-0.467-1.702-0.305-2.245,0.377l-2.648,4.475l-4.157-3.365
		c-0.526-0.426-1.292-0.377-1.759,0.115l-3.172,3.346c-0.563,0.594-1.528,0.525-2.001-0.145l-2.066-2.923
		c-0.438-0.618-1.311-0.731-1.891-0.247l-2.502,2.094c-0.53,0.445-1.32,0.394-1.787-0.12l-2.265-2.473
		c-0.481-0.528-1.304-0.564-1.832-0.08l-1.54,1.411c-0.478,0.438-1.204,0.457-1.703,0.046l-1.956-1.616
		c-0.499-0.411-1.226-0.392-1.702,0.047l-0.636,0.584c-0.481,0.445-1.221,0.457-1.72,0.034l-3.216-0.171
		c-0.433,0.327-10.523,3.145-10.523,3.145c-0.577-0.376,17.148-0.288,17.148-0.288c0.037,0,0.073,0.002,0.108,0.005l28.846,2.421
		c0.135,0.338,0.377,0.639,0.719,0.839l13.439,6.708c0.322,0.188,0.696,0.267,1.068,0.223l75.719-9.225
		C230.22,245.831,230.897,244.829,230.633,243.828"/>
	<path d="M275.141,94.423c-12.36-4.096-24.63-7.106-37.264-8.12c-6.55-0.526-12.92,0.526-19.242,2.074
		c-2.727,0.667-5.444,1.434-8.124,2.295c-1.783,0.572-1.954,1.387-0.739,2.426c2.206,1.882,4.48,2.231,7.704,1.098
		c4.108-1.447,8.178-2.912,12.209-4.375c3.044-1.106,5.936-0.819,8.77,0.351c1,0.413,2.104,0.741,2.959,1.311
		c4.06,2.709,9.029,3.5,14.07,4.313c3.162,0.511,6.307,1.2,9.755,1.866c-0.425,0.287-0.621,0.479-0.875,0.581
		c-6.285,2.508-12.63,5.087-19.135,7.563c-0.255,0.097-0.523,0.177-0.792,0.26c-0.099,2.166-0.502,4.247-0.179,6.507
		c0.45-0.141,0.937-0.256,1.501-0.316c0.438,3.674,2.793,6.635,5.264,9.698c2.401,2.978,7.826,4.142,11.093,3.222
		c7.119-2.006,11.676-5.975,13.297-12.129c0.692-2.639,0.988-5.338,1.595-7.913c0.315-1.335,0.756-2.67,1.45-3.847
		C279.932,98.795,278.403,95.505,275.141,94.423"/>
	<path fill="#414042" d="M259.413,120.602c-2.157-0.163-3.935-1.056-4.58-1.854c-2.067-2.563-4.019-4.984-4.313-7.436l-0.347-2.935
		c4.03-1.563,8.014-3.159,11.888-4.711l4.302-1.721c0.692-0.276,1.167-0.626,1.479-0.857c0.064-0.047,0.138-0.103,0.23-0.164
		l4.654-3.13c0.439,0.124,0.897,0.264,1.371,0.42c0.482,0.16,0.715,0.415,0.8,0.557c-0.792,1.382-1.401,2.997-1.854,4.925
		c-0.301,1.277-0.528,2.546-0.746,3.774c-0.252,1.413-0.486,2.749-0.824,4.026c-0.745,2.834-2.614,6.849-10.205,8.986
		C261.052,120.545,260.433,120.68,259.413,120.602"/>
	<path fill="#238A43" d="M223.281,273.553c3.437,0.655,8.436,2.044,11.717,3.255c3.282,1.213,6.481,2.681,8.79,5.307
		c0.733,0.834,1,5.643-3.441,4.672l-8.205-2.565c2.292-0.145,8.606,0.863,8.166,4.243c-0.146,1.117-1.572,1.525-2.688,1.683
		c-4.916,0.691-12.438,0.787-17.124-0.854c-4.684-1.644-8.543-4.405-11.524-8.193"/>
	<path fill="#2F3919" d="M209.451,283.066c6.855,8.217,19.367,11.866,29.803,8.753c2.431-0.725,3.939-2.554,2.597-5.07
		c-1.563-2.925-6.077-3.463-9.023-3.448c-1.783,0.008-1.788,2.78,0,2.773c0.821-0.005,2.151-0.14,2.863,0.232
		c1.541,0.805,1.893,2.315,0.232,3.179c-1.771,0.918-6.207,0.237-8.107,0.094c-6.677-0.509-12.115-3.334-16.402-8.475
		C210.269,279.732,208.314,281.704,209.451,283.066"/>
	<path fill="#2F3919" d="M223.597,275.353c3.965,0.805,7.924,1.844,11.717,3.258c2.26,0.841,4.515,1.807,6.4,3.336
		c1.741,1.411,2.988,4.38-0.682,3.918c-1.769-0.223-1.752,2.553,0,2.772c3.979,0.502,6.684-3.333,4.529-6.896
		c-1.705-2.827-5.99-4.456-8.897-5.571c-3.981-1.528-8.151-2.644-12.328-3.489C222.592,272.325,221.846,274.998,223.597,275.353"/>
	<path fill="#4EB748" d="M242.291,226.708c0,0,6.562,0.693,6.701-0.555c0.14-1.246-0.858-2.661-0.858-2.661l-2.749-2.332
		c3.468,3.19,4.578,4.022,6.381,1.526c1.805-2.497-4.991-7.491-6.381-8.184c-1.387-0.693-4.715,2.774-4.715,2.774"/>
	<path fill="#238A43" d="M243.125,227.974c0,0-0.107-5.499,0.093-7.319c0.37-3.371,3.15-5.461,3.15-5.461l-6.909,1.241l-0.335,7.711
		L243.125,227.974z"/>
	<path fill="#2F3919" d="M242.345,218.258c0.697-0.718,1.842-2.082,2.84-2.283c1-0.203,2.216,1.058,3.062,1.783
		c0.912,0.782,3.123,2.459,3.113,3.819c-0.021,2.915-3.773-0.916-4.299-1.396c-1.316-1.203-3.282,0.753-1.962,1.961
		c2.062,1.886,4.984,4.937,7.691,2.308c2.196-2.131,1.219-4.59-0.535-6.644c-1.39-1.625-3.778-4.099-5.938-4.681
		c-2.2-0.593-4.549,1.746-5.936,3.172C239.137,217.577,241.098,219.54,242.345,218.258"/>
	<path fill="#2F3919" d="M245.019,227.491c1.352,0.402,3.027,0.851,4.429,0.503c2.479-0.614,1.636-3.667,0.577-5.202
		c-1.008-1.46-3.414-0.075-2.396,1.4c0.291,0.418,0.535,0.886,0.646,1.386c0.021,0.104,0.098,0.331,0.056,0.298
		c0.074-0.307,0.235-0.499,0.482-0.577c0.107-0.037,0.093-0.035-0.042,0.006c-0.017-0.01-0.252,0.021-0.545,0.006
		c-0.751-0.039-1.653-0.254-2.471-0.496C244.04,224.307,243.307,226.983,245.019,227.491"/>
	<path fill="#58595B" d="M251.548,120.981c0.644,0.567,1.479,1.117,2.463,1.526c0.944,0.395,1.572,0.462,1.8,0.472
		c7.878,0.36,10.915-2.862,12.515-5.319c0.721-1.105,1.367-2.299,2.049-3.563c0.221-0.406,0.45-0.822,0.678-1.236
		C263.382,110.863,255.425,114.289,251.548,120.981"/>
	<path fill="#238A43" d="M185.46,284.932c-21.027,0-32.188-8.217-41.155-14.817c-1.935-1.426-3.764-2.771-5.622-3.994
		c-9.47-6.227-25.359-16.376-41.111-16.376c-4.268,0-18.79,4.968-22.732,6.085l8.824-7.467c2.105-1.548,4.204-2.722,6.236-3.487
		c4.312-1.631,8.638-0.839,14.454-0.839c6.676,0,14.713,0.785,22.888,2.891c1.786,0.46,5.586,0.951,8.066,0.951
		c13.23,0,37.207-8.705,52.723-28.296c10.741-13.56,14.082-30.656,9.66-49.438c-5.292-22.48-8.733-49.27,11.788-56.966
		c5.275-1.979,11.206-2.981,17.63-2.981c10.177,0,18.364,2.539,19.521,2.915l0.068,0.02l0.125,0.048
		c0.32,0.119,31.83,12.232,31.458,35.248c-0.359,22.366-21.57,28.092-23.989,28.67l-0.198,0.048l-0.203,0.023
		c-1.876,0.208-3.731,0.313-5.524,0.313c-6.288,0-12.042-2.271-17.86-4.901c-1.032-0.466-3.952-0.648-2.876-0.506
		c13.732,1.801,13.24,3.118,23.786,32.259c7.452,20.592-7.036,38.14-16.408,54.778c-8.058,14.314-21.858,23.258-38.86,25.185
		C192.438,284.717,188.842,284.932,185.46,284.932"/>
	<path fill="#4EB748" d="M186.159,284.46c3.314,0,6.843-0.208,10.489-0.621c16.188-1.837,29.318-10.333,36.971-23.926
		c9.002-15.979-5.29-91.277-5.29-91.277c1.551,1.158,3.268,2.165,5.104,2.995c5.468,2.473,10.763,3.624,16.664,3.624
		c1.697,0,3.463-0.101,5.246-0.299c1.817-0.435,21.502-5.625,21.829-25.955c0.34-21.086-29.514-32.543-29.816-32.655
		c-0.022-0.006-8.384-2.817-18.866-2.817c-6.126,0-11.763,0.948-16.747,2.817c-14.381,5.392-17.438,22.052-9.912,54.018
		c4.734,20.114,1.122,38.469-10.448,53.076c-16.503,20.838-43.456,28.401-57.55,28.401h-0.003c-2.798,0-5.275-0.273-7.363-0.809
		c-8.039-2.072-15.413-3.121-21.915-3.121c-5.511,0-10.336,0.768-14.342,2.282c-1.964,0.74-3.842,1.865-5.542,3.113
		c4.312-1.221,27.455,3.054,43.872,14.346c1.923,1.323,12.586,7.857,14.594,9.337C152.312,283.743,165.883,284.46,186.159,284.46"/>
	<path fill="#F9ED32" d="M224.903,167.978c0,0,4.798,9.255,7.087,32.333c6.571,66.208-46.229,86.448-99.28,68.383
		c0,0,25.369,21.14,62.051,15.649c35.114-5.256,55.139-31.099,56.203-46.848c1.964-28.988-4.209-45.098-7.579-53.506
		c-2.313-5.776-3.906-7.813-3.906-7.813L224.903,167.978z"/>
	<path fill="#DCC025" d="M234.509,173.739c0,0,0.915,1,1.478,4.518c0.521,3.246,2.612,7.957,3.84,11.096
		c6.393,16.368,11.509,28.51,5.559,46.976c-4.837,15.016-16.635,38.987-50.825,43.967c-31.81,4.637-61.747-11.565-61.85-11.602
		c0,0,26.438,20.311,60.879,17.552c36.002-2.886,60.229-38.333,61.771-54.033c1.292-13.162-9.295-39.13-14.357-52.43
		C237.931,171.708,235.892,174.196,234.509,173.739"/>
	<path fill="#2F3919" d="M214.436,153.288c2.032,13.548,15.782,21.677,28.262,23.449c10.847,1.539,20.606-1.187,28.494-8.998
		c10.325-10.226,10.988-26.356,2.382-37.815c-6.244-8.313-16.222-15.082-26.012-18.595c-12.827-4.604-31.404-5.204-43.114,2.436
		c-13.247,8.642-12.182,27.22-10.151,40.871c1.553,10.444,4.916,20.561,4.869,31.203c-0.037,8.55-1.944,17.038-5.869,24.652
		c-6.571,12.74-18.022,22.268-30.786,28.441c-10.477,5.065-23.889,9.426-35.649,7.086c-20.11-3.999-40.434-6.691-54.33,11.494
		c-0.897,1.177,0.79,2.499,1.898,1.897c22.889-12.411,44.774,4.405,63.74,16.166c13.282,8.234,28.608,11.399,44.082,11.956
		c17.005,0.612,33.456-0.971,47.902-10.657c12.825-8.602,22.072-21.903,25.056-37.112c1.927-9.813,1.348-19.922-0.983-29.614
		c-1.396-5.807-3.419-11.449-5.85-16.903c-2.697-6.046-6.791-11.865-8.394-18.34c-0.425-1.731-3.104-0.998-2.673,0.737
		c2.47,9.997,9.166,18.738,12.36,28.584c3.099,9.558,4.666,19.679,3.632,29.715c-1.775,17.218-11.629,32.503-26.264,41.638
		c-15.437,9.638-33.708,10.291-51.395,8.777c-16.257-1.395-29.441-6.843-42.919-15.652c-17.748-11.602-38.99-22.918-59.695-11.692
		c0.631,0.634,1.265,1.267,1.898,1.897c13.277-17.376,32.954-13.553,51.798-10.093c8.264,1.519,17.146-0.242,25.051-2.692
		c21.588-6.695,41.781-22.258,48.052-44.749c4.385-15.729-0.044-30.013-2.561-45.58c-2.769-17.121-2.94-37.931,17.236-43.209
		c11.221-2.935,24.857-2.206,35.506,2.814c11.112,5.24,23.64,13.952,26.374,26.726c3.068,14.334-7.45,28.726-21.488,31.851
		c-14.565,3.239-35.358-5.247-37.787-21.426C216.845,150.792,214.172,151.539,214.436,153.288"/>
	<path fill="#4EB748" d="M192.061,261.412c3.585-0.501,6.989,2.172,9.731,5.273c1.597,1.805,3.11,3.856,3.933,6.414
		c1.181,3.693,0.743,8.052-0.631,11.63c-1.375,3.575-3.684,7.867-6.063,10.347c3.887,1.78,8.467,3.882,12.351,5.662
		c1.57,0.719,3.187,1.472,4.329,2.766c1.14,1.297-0.226,3.759-1.152,4.199c-0.946,0.445-1.008,1.683-2.117,1.981
		c-5.934,1.589-13.693,0.943-17.504-3.141l3.91,2.607c14.877,9.88-17.188-0.585-18.41-1.588c-3.502-2.866-5.63-28.777-4.429-34.977
		L192.061,261.412"/>
	<path fill="#238A43" d="M182.997,307.926c0,0-2.245-3.189-2.896-6.757c-0.93-5.116-2.827-27.932-2.827-27.932l-2.113,12.313
		l2.224,17.694L182.997,307.926z"/>
	<path fill="#238A43" d="M205.094,284.729c0,0,0.32-9.725-0.331-13.292c-0.932-5.114-12.702-10.025-12.702-10.025
		s10.34,4.94,10.34,18.257c0,10.479-4.544,15.241-4.544,15.241L205.094,284.729z"/>
	<path fill="#2F3919" d="M197.954,296.106c2.901,1.33,5.804,2.66,8.704,3.988c2.561,1.174,8.467,2.747,6.682,6.352
		c-1.25,2.521-5.5,2.507-7.809,2.473c-3.671-0.052-7.28-0.935-9.99-3.524c-1.292-1.232-3.255,0.727-1.962,1.962
		c5.163,4.935,17.122,6.921,22.069,0.784c1.967-2.438,1.952-4.905-0.553-6.879c-4.321-3.404-10.761-5.269-15.742-7.55
		C197.744,292.974,196.331,295.362,197.954,296.106"/>
	<path fill="#2F3919" d="M174.67,273.184c-1.353,8.344-0.242,17.638,1.179,25.908c1.032,6.015,1.827,9.105,7.503,11.089
		c4.791,1.673,12.856,5.471,18.068,4.383c5.31-1.108-0.135-5.334-2.247-6.779c-1.48-1.011-2.869,1.394-1.401,2.396
		c1.179,0.805,2.255,1.624,3.262,2.627c-1.054-1.05,1.057-0.523-0.646-1.021c-1.949-0.567-4.133-0.696-6.129-1.205
		c-3.619-0.922-9.269-1.761-12.406-3.889c-3.646-2.473-3.697-10.271-4.118-14.241c-0.636-5.965-1.357-12.558-0.39-18.53
		C177.626,272.173,174.956,271.423,174.67,273.184"/>
	<path fill="#2F3919" d="M199.635,295.891c5.045-5.898,9.283-14.446,7.278-22.38c-1.678-6.652-8.07-13.648-15.229-13.651
		c-1.785-0.002-1.787,2.773,0,2.773c7.213,0.002,12.938,8.729,12.931,15.158c-0.003,5.794-3.258,11.832-6.941,16.136
		C196.519,295.277,198.473,297.248,199.635,295.891"/>
	<path fill="#2F3919" d="M211.015,309.513c0.389-4.739-6.056-6.466-9.346-8.097c-1.594-0.793-3,1.602-1.398,2.394
		c1.678,0.834,3.434,1.514,5.082,2.404c1.304,0.704,3.027,1.597,2.889,3.299C208.094,311.291,210.87,311.281,211.015,309.513"/>
	<path fill="#5C72AB" d="M274.958,266.128l-54.403,26.334c-2.138,1.035-4.708,0.14-5.745-1.998l-17.327-35.799
		c-1.037-2.138-0.142-4.708,1.996-5.742l54.402-26.336c2.138-1.035,4.708-0.141,5.745,1.997l17.327,35.8
		C277.99,262.521,277.095,265.091,274.958,266.128"/>
	<path fill="#1A2139" d="M274.302,266.443l-50.913,24.646c-2.137,1.035-4.707,0.14-5.742-1.998l-15.698-32.427
		c-1.034-2.137-0.142-4.71,1.996-5.742l50.912-24.647c2.138-1.036,4.711-0.141,5.745,1.997l15.698,32.429
		C277.335,262.838,276.439,265.408,274.302,266.443"/>
	<path fill="none" stroke="#1A2139" stroke-width="2.012" stroke-miterlimit="10" d="M274.302,266.443l-54.402,26.334
		c-2.138,1.035-4.708,0.143-5.742-1.995l-17.33-35.8c-1.034-2.137-0.142-4.71,1.996-5.744l54.402-26.333
		c2.138-1.037,4.71-0.143,5.745,1.996l17.329,35.8C277.335,262.838,276.439,265.408,274.302,266.443z"/>
	<path fill="none" stroke="#1A2139" stroke-width="3.018" stroke-miterlimit="10" d="M234.705,231.212l-17.577,8.509
		c-0.709,0.345-1.564,0.046-1.91-0.664l-2.9-5.993c-0.345-0.712-0.046-1.566,0.663-1.911l17.577-8.507
		c0.711-0.345,1.567-0.048,1.909,0.663l2.903,5.994C235.713,230.013,235.417,230.869,234.705,231.212z"/>
	
		<line fill="none" stroke="#5C72AB" stroke-width="2.012" stroke-miterlimit="10" x1="212.704" y1="245.722" x2="229.442" y2="280.295"/>
	
		<line fill="none" stroke="#5C72AB" stroke-width="2.012" stroke-miterlimit="10" x1="242.597" y1="230.565" x2="259.332" y2="265.14"/>
	<path fill="#2F3919" d="M214.592,154.744c0.406-1.289,1.773-2.091,2.944-2.208c0.903-0.089,1.678-0.707,1.678-1.678
		c0-0.838-0.77-1.77-1.678-1.679c-2.821,0.283-5.302,1.885-6.182,4.674C210.704,155.916,213.941,156.8,214.592,154.744"/>
	<path fill="#238A43" d="M254.796,156.425c-0.423-2.035,0.232-4.538,2-5.707c1.769-1.169,3.508-0.954,5.508,0.319"/>
	<path fill="#2F3918" d="M254.83,156.773c0,0-0.034-0.043-0.096-0.124c-0.054-0.084-0.166-0.189-0.249-0.362
		c-0.195-0.34-0.413-0.843-0.512-1.505c-0.109-0.659-0.088-1.469,0.184-2.315c0.262-0.837,0.808-1.727,1.637-2.355
		c0.117-0.086,0.174-0.141,0.345-0.249l0.247-0.146c0.186-0.099,0.472-0.258,0.689-0.325c0.455-0.182,0.954-0.28,1.433-0.297
		c0.969-0.034,1.811,0.277,2.365,0.667c0.575,0.364,0.93,0.792,1.152,1.102c0.218,0.313,0.313,0.519,0.313,0.519
		s-0.218-0.007-0.597-0.022c-0.359-0.023-0.863-0.04-1.379-0.042c-0.531,0.022-1.052,0.092-1.512,0.259
		c-0.234,0.075-0.462,0.179-0.694,0.306l-0.33,0.188l-0.24,0.155l-0.124,0.087c-0.401,0.293-0.785,0.69-1.113,1.159
		c-0.328,0.466-0.616,0.983-0.839,1.468c-0.215,0.484-0.392,0.947-0.499,1.272C254.896,156.57,254.83,156.773,254.83,156.773"/>
	<path fill="#2F3918" d="M211.231,124.399c-0.109,0.361-0.611,0.437-0.795,0.107c-1.115-1.981-0.376-4.801,1.412-6.148
		c1.797-1.356,4.406-1.248,5.866,0.423c0.245,0.279,0.044,0.723-0.325,0.736c-1.403,0.049-2.33,0.232-3.523,1.169
		C212.675,121.621,211.67,122.97,211.231,124.399"/>
	<path fill="#238A43" d="M206.962,220.243c0,0-0.935,13.712,0.839,16.054c3.377,4.457,7.833,0.989,13.837-6.201l-1.159-0.85
		c-1.629-1.279,3.136,3.435,4.399,2.913c2.605-1.074,2.578-2.397,4.407-4.895c1.829-2.496-5.067-7.49-6.476-8.183
		c-1.406-0.693-11.443,8.223-11.443,8.223l4.055-3.969l-0.024-5.641"/>
	<path fill="#4EB748" d="M208.646,217.744c0,0-0.608,14.768,0.829,16.053c3.512,3.145,6.195-0.034,12.113-7.224l0.379,0.172
		c-1.604-1.278,3.089,3.436,4.336,2.914c2.566-1.076,2.539-2.398,4.344-4.895c1.803-2.497-4.994-7.49-6.381-8.183
		s-11.279,8.222-11.279,8.222l3.997-3.968l-0.022-5.641"/>
	<path fill="#238A43" d="M224.903,229.019c0,0,4.346-3.615,4.583-5.695c0.119-1.04,0.909,2.796,0.909,2.796l-4.092,4.281
		L224.903,229.019z"/>
	<path fill="#2F3919" d="M207.26,218.486c-0.093,2.294-0.132,4.592-0.127,6.887c0.008,2.777-0.303,6.264,0.678,8.926
		c0.746,2.021,3.191,3.155,5.268,2.733c4.004-0.817,7.117-5.856,9.491-8.737c1.128-1.367-0.824-3.34-1.961-1.96
		c-1.844,2.234-4.762,7.1-7.804,7.899c-2.744,0.721-2.656-2.179-2.773-4.025c-0.245-3.894-0.154-7.828,0.002-11.723
		C210.106,216.701,207.331,216.705,207.26,218.486"/>
	<path fill="#2F3919" d="M215.575,215.937c0.008,1.879,0.015,3.76,0.022,5.641c0.007,1.784,2.78,1.788,2.772,0
		c-0.007-1.881-0.014-3.762-0.021-5.641C218.341,214.151,215.568,214.147,215.575,215.937"/>
	<path fill="#2F3919" d="M231.844,226.207c1.377-2.701-0.871-5.218-2.771-6.988c-1.386-1.294-3.497-3.578-5.575-3.246
		c-2.216,0.355-4.415,2.65-6.095,4c-1.842,1.476-3.64,3.014-5.396,4.592c-1.33,1.198,0.639,3.153,1.962,1.962
		c2.343-2.107,4.742-4.194,7.283-6.055c1.229-0.9,2.117-1.755,3.177-1.423c1.237,0.385,5.759,4.311,5.021,5.758
		C228.64,226.394,231.031,227.799,231.844,226.207"/>
	<path fill="#2F3919" d="M222.949,226.507c-0.409-0.315-0.754-0.631-1.312-0.623c-0.834,0.012-1.658,0.887-1.335,1.756
		c0.353,0.953,1.387,1.684,2.145,2.299c0.905,0.732,1.993,1.649,3.185,1.836c2.746,0.434,5.214-3.463,6.214-5.568
		c0.761-1.605-1.631-3.014-2.396-1.4c-0.283,0.597-0.624,1.172-0.99,1.722c-0.359,0.543-0.756,1.056-1.221,1.516
		c-0.259,0.259-1.335,1.021-1.052,1.025c-0.628-0.009-1.44-0.822-1.9-1.191c-0.335-0.271-0.662-0.557-0.976-0.853
		c-0.356-0.336-0.623-0.909-0.335-0.124c-0.445,0.586-0.89,1.17-1.338,1.756c-0.273,0.039-0.489-0.024-0.65-0.189
		C222.384,229.548,224.36,227.599,222.949,226.507"/>
	<path fill="#2F3919" d="M226.605,228.984c-1.529,0.198-3.485,0.34-4.914-0.351c-1.599-0.775-3.008,1.616-1.401,2.394
		c1.913,0.926,4.238,1,6.315,0.731c0.748-0.098,1.379-0.568,1.386-1.388C227.999,229.696,227.349,228.888,226.605,228.984"/>
	<path fill="#2F3918" d="M222.896,132.535c0,1.992-1.617,3.606-3.607,3.606c-1.991,0-3.607-1.614-3.607-3.606
		c0-1.992,1.616-3.606,3.607-3.606C221.278,128.929,222.896,130.543,222.896,132.535"/>
	<path fill="#FFFFFF" d="M220.966,131.518c0,0.319-0.26,0.578-0.577,0.578c-0.321,0-0.58-0.259-0.58-0.578
		c0-0.321,0.259-0.579,0.58-0.579C220.706,130.939,220.966,131.197,220.966,131.518"/>
	<path fill="#2F3919" d="M216.728,132.26c-0.46,0.146-0.922,0.292-1.382,0.439c-0.847,0.268-0.484,1.609,0.369,1.337
		c0.46-0.146,0.919-0.292,1.379-0.439C217.942,133.328,217.581,131.988,216.728,132.26"/>
	<path d="M250.13,102.373c-1.355,0.697-2.889,1.188-4.4,1.354c-13.681,1.503-26.3,5.78-38.4,11.573
		c-2.879,1.378-5.997,1.717-9.45,0.005c-9.873-4.898-1.736,7.558,6.943,10.453c1.545,0.516,2.262,1.358,2.814,2.797
		c1.364,3.561,2.767,7.117,4.341,10.602c1.351,2.992,3.889,4.43,6.929,5.141c6.366,1.489,11.795-0.373,16.848-3.428
		c8.834-5.336,12.003-14.185,12.783-24.329c0.201-2.567,0.942-4.423,2.931-5.447C250.579,108.149,250.535,105.321,250.13,102.373"/>
	<path fill="#414042" d="M222.489,139.724c-1.128,0-2.282-0.137-3.434-0.407c-2.654-0.619-3.438-1.637-3.894-2.644
		c-1.575-3.485-2.969-7.041-4.243-10.363c-0.67-1.755-1.979-4.226-5.555-5.42c-0.599-0.199-1.195-0.463-1.777-0.771
		c1.6-0.219,3.206-0.71,4.796-1.471c12.959-6.204,25.053-9.856,36.968-11.166c0.037-0.004,0.073-0.007,0.11-0.012
		c0.059,0.437,0.127,0.878,0.205,1.324c-2.086,2.5-2.32,5.539-2.413,6.748c-0.808,10.47-4.092,16.906-10.653,20.872
		C228.86,138.671,225.646,139.724,222.489,139.724"/>
	<path fill="#58595B" d="M228.904,125.307c-6.491,0-12.18,3.338-15.447,8.364c0.429,1.015,0.863,2.031,1.321,3.041
		c0.455,1.007,1.239,2.025,3.893,2.645c1.155,0.269,2.31,0.406,3.435,0.406c3.159,0,6.373-1.052,10.112-3.31
		c3.199-1.933,5.612-4.461,7.347-7.751C236.557,126.572,232.883,125.307,228.904,125.307"/>
	<path fill="#ECDD31" d="M184.956,93.014c-1.323-7.351-2.316-18.31-0.169-25.143c2.725-8.667,6.694-11.389,17.22-11.94
		c1.301-0.069,2.604-0.121,3.891-0.105c3.444,0.045,6.361-1.13,9.147-3.188c2.746-2.03,5.693-3.887,8.665-5.675
		c3.514-2.115,7.004-2.173,10.293-0.752c7.613,3.287,14.287,12.767,18.514,18.787c0.65,0.926,1.179,1.918,1.878,3.07
		c6.285-2.792,12.312-5.857,17.691-9.859c3.679-2.736,6.75-3.087,9.824-0.669c4.752,3.736,6.914,8.564,5.264,14.576
		c-3.547,12.907-11.358,24.228-24.21,33.231c-18.976,13.296-40.187,20.69-63.31,21.676c-15.1,0.643-27.78-3.363-38.154-11.064
		c-4.923-3.653-6.158-8.73-4.783-14.522c0.902-3.799,3.502-5.168,8.122-5.641C171.417,95.122,178.013,93.997,184.956,93.014
		 M185.438,94.033c0.949,2.703,70.449-21.054,69.275-24.401c-1.512,4.681-5.139,7.433-9.125,9.806
		c-12.59,7.495-26.288,12.368-40.644,15.403C198.287,96.247,191.537,97.474,185.438,94.033"/>
	<path fill="#DCC028" d="M281.91,57.541c-3.074-2.418-6.146-2.068-9.824,0.667c-5.38,4.002-11.406,7.067-17.691,9.859
		c-0.699-1.152-1.228-2.145-1.878-3.07c-4.227-6.019-10.9-15.5-18.514-18.786c-3.289-1.42-6.779-1.363-10.291,0.752
		c-2.974,1.788-5.921,3.645-8.667,5.673c-2.786,2.059-5.703,3.234-9.147,3.189c-1.286-0.016-2.59,0.037-3.891,0.104
		c-9.772,0.512-13.894,2.897-16.613,10.173c2.764-4.014,6.941-5.525,14.483-5.92c1.301-0.067,2.604-0.121,3.891-0.104
		c3.446,0.044,6.361-1.132,9.146-3.189c2.747-2.03,5.694-3.887,8.665-5.675c3.515-2.115,7.007-2.173,10.294-0.752
		c7.613,3.287,14.287,12.768,18.516,18.787c0.648,0.926,1.177,1.918,1.878,3.072c0.548-0.245,1.094-0.494,1.639-0.744
		c0.311-0.611,0.585-1.256,0.808-1.947c0.161,0.461,0.325,0.909,0.489,1.349c5.221-2.441,10.22-5.146,14.757-8.52
		c3.676-2.735,6.747-3.085,9.821-0.667c4.752,3.737,6.914,8.563,5.263,14.575c-0.78,2.84-1.78,5.6-2.983,8.279
		c2.211-3.979,3.913-8.162,5.114-12.532C288.824,66.104,286.662,61.277,281.91,57.541"/>
	<path fill="#5E73AD" d="M184.956,93.014c6.131,3.43,12.573,1.646,19.279,0.222c14.458-3.07,28.256-7.979,40.949-15.51
		c4.016-2.383,7.677-5.146,9.208-9.833c1.174,3.346,2.46,6.105,3.074,9.043c0.513,2.45-1.265,4.879-3.603,6.636
		c-3.7,2.782-7.523,5.585-11.686,7.777c-12.404,6.529-25.571,10.971-39.44,12.7c-3.407,0.423-6.875,0.188-10.191-0.12
		c-2.871-0.267-4.705-1.757-5.409-4.143C186.445,97.449,185.905,95.716,184.956,93.014"/>
	<path fill="#506491" d="M249.114,75.081c2.344-1.856,4.271-4.106,5.278-7.189c1.174,3.347,2.46,6.106,3.074,9.044
		c0.513,2.45-1.265,4.879-3.603,6.636L249.114,75.081z"/>
</g>
</svg>
